<svg version="1.1" viewBox="0 0 24 24" xmlns="http://www.w3.org/2000/svg">
 <path d="m3 5c-0.55228 0-1 0.44772-1 1s0.44772 1 1 1h13c0.5523 0 1-0.44772 1-1s-0.4477-1-1-1h-13zm17 2c-0.25592 0-0.51178 0.097709-0.70703 0.29297l-4 4c-0.3905 0.3905-0.3905 1.0236 0 1.4141l4 4c0.3905 0.3905 1.0236 0.3905 1.4141 0 0.3905-0.3905 0.3905-1.0236 0-1.4141l-3.293-3.293 3.293-3.293c0.3905-0.39053 0.3905-1.0235 0-1.4141-0.19525-0.19526-0.45111-0.29297-0.70703-0.29297zm-17 4c-0.55228 0-1 0.4477-1 1s0.44772 1 1 1h9c0.5523 0 1-0.4477 1-1s-0.4477-1-1-1h-9zm0 6c-0.55228 0-1 0.4477-1 1s0.44772 1 1 1h13c0.5523 0 1-0.4477 1-1s-0.4477-1-1-1h-13z"/>
</svg>
