<?xml version="1.0" encoding="UTF-8" standalone="no"?>
<svg
   viewBox="0 0 24 24"
   version="1.1"
   id="svg10789"
   sodipodi:docname="code.svg"
   inkscape:version="1.2.2 (732a01da63, 2022-12-09, custom)"
   xmlns:inkscape="http://www.inkscape.org/namespaces/inkscape"
   xmlns:sodipodi="http://sodipodi.sourceforge.net/DTD/sodipodi-0.dtd"
   xmlns="http://www.w3.org/2000/svg"
   xmlns:svg="http://www.w3.org/2000/svg">
  <defs
     id="defs10793" />
  <sodipodi:namedview
     id="namedview10791"
     pagecolor="#ffffff"
     bordercolor="#666666"
     borderopacity="1.0"
     inkscape:showpageshadow="2"
     inkscape:pageopacity="0.0"
     inkscape:pagecheckerboard="0"
     inkscape:deskcolor="#d1d1d1"
     showgrid="false"
     showguides="true"
     inkscape:zoom="16"
     inkscape:cx="19.28125"
     inkscape:cy="17.65625"
     inkscape:window-width="1920"
     inkscape:window-height="946"
     inkscape:window-x="0"
     inkscape:window-y="27"
     inkscape:window-maximized="1"
     inkscape:current-layer="svg10789">
    <inkscape:grid
       type="xygrid"
       id="grid11275" />
  </sodipodi:namedview>
  <path
     id="path11729"
     d="m 15.292969,6.2929688 c -0.390424,0.390507 -0.390424,1.023555 0,1.4140622 L 19.585938,12 15.292969,16.292969 c -0.390423,0.390507 -0.390423,1.023555 0,1.414062 0.390507,0.390423 1.023555,0.390423 1.414062,0 l 5,-5 c 0.390368,-0.39053 0.390368,-1.023532 0,-1.414062 l -5,-5.0000002 c -0.390507,-0.390424 -1.023555,-0.390424 -1.414062,0 z m -2.441407,-1.28125 c -0.428317,0.064298 -0.766556,0.3970177 -0.83789,0.8242187 l -2,12.0000005 c -0.090539,0.544718 0.27757,1.05972 0.822266,1.15039 0.544718,0.09054 1.05972,-0.27757 1.15039,-0.822266 l 2,-11.9999995 c 0.09054,-0.5447179 -0.27757,-1.0597206 -0.822266,-1.1503906 -0.103421,-0.017024 -0.208875,-0.017683 -0.3125,-0.00195 z M 4.4140625,12 8.7070312,16.292969 c 0.3904233,0.390507 0.3904233,1.023555 0,1.414062 -0.390507,0.390424 -1.0235554,0.390424 -1.4140624,0 l -5,-5 c -0.3903681,-0.39053 -0.3903681,-1.023532 0,-1.414062 l 5,-5.0000002 c 0.390507,-0.390424 1.023555,-0.390424 1.414062,0 0.390424,0.390507 0.390424,1.023555 2e-7,1.4140622 z"
     sodipodi:nodetypes="ccccccccccccccccccccccccccccc" />
</svg>
