<svg version="1.1" viewBox="0 0 24 24" xmlns="http://www.w3.org/2000/svg">
 <path d="m6 1c-0.79565 0-1.5585 0.3163-2.1211 0.87891-0.56261 0.56261-0.87891 1.3254-0.87891 2.1211v16c0 0.7957 0.3163 1.5585 0.87891 2.1211 0.56261 0.5626 1.3254 0.87891 2.1211 0.87891h12c0.7957 0 1.5585-0.31631 2.1211-0.87891 0.5626-0.5626 0.87891-1.3254 0.87891-2.1211v-12c0-0.26522-0.10547-0.51949-0.29297-0.70703l-6-6c-0.1875-0.18754-0.44183-0.29297-0.70703-0.29297h-8zm0 2h7v5c0 0.55228 0.4477 1 1 1h5v11c0 0.2652-0.10547 0.51953-0.29297 0.70703s-0.44183 0.29297-0.70703 0.29297h-12c-0.26522 0-0.51949-0.10547-0.70703-0.29297-0.18753-0.1875-0.29297-0.44183-0.29297-0.70703v-16c0-0.26522 0.10544-0.51949 0.29297-0.70703 0.18754-0.18753 0.44181-0.29297 0.70703-0.29297zm9 1.4141 2.5859 2.5859h-2.5859v-2.5859zm-7 3.5859c-0.55228 0-1 0.44772-1 1 0 0.55229 0.44772 1 1 1h2c0.55228 0 1-0.44771 1-1 0-0.55228-0.44772-1-1-1h-2zm0 4c-0.55228 0-1 0.4477-1 1s0.44772 1 1 1h8c0.5523 0 1-0.4477 1-1s-0.4477-1-1-1h-8zm0 4c-0.55228 0-1 0.4477-1 1s0.44772 1 1 1h8c0.5523 0 1-0.4477 1-1s-0.4477-1-1-1h-8z"/>
</svg>
