<svg version="1.1" viewBox="0 0 24 24" xmlns="http://www.w3.org/2000/svg">
 <path d="m11.646 2.0607c0.5523 0 1 0.44772 1 1v9.5858l3.2929-3.2929c0.3905-0.39052 1.0237-0.39052 1.4142 0 0.3905 0.39053 0.3905 1.0237 0 1.4142l-5 5c-0.3905 0.3905-1.0237 0.3905-1.4142 0l-5-5c-0.39052-0.39053-0.39052-1.0237 0-1.4142 0.39053-0.39052 1.0237-0.39052 1.4142 0l3.2929 3.2929v-9.5858c0-0.55228 0.44771-1 1-1zm-9 12c0.55228 0 1 0.4477 1 1v4c0 0.2652 0.10536 0.5196 0.29289 0.7071 0.18754 0.1875 0.44189 0.2929 0.70711 0.2929h14c0.2652 0 0.5196-0.1054 0.7071-0.2929s0.2929-0.4419 0.2929-0.7071v-4c0-0.5523 0.4477-1 1-1s1 0.4477 1 1v4c0 0.7957-0.3161 1.5587-0.8787 2.1213s-1.3256 0.8787-2.1213 0.8787h-14c-0.79565 0-1.5587-0.3161-2.1213-0.8787s-0.87868-1.3256-0.87868-2.1213v-4c0-0.5523 0.44772-1 1-1z"/>
</svg>
