<svg version="1.1" viewBox="0 0 24 24" xmlns="http://www.w3.org/2000/svg">
 <path d="m12 0c-1.5 0-3 1-3 3 1e-6 0.36312-0.19504 0.59137-0.44336 0.70117-0.24832 0.10979-0.48605 0.12746-0.79883-0.18555-1.4144-1.4147-3.1815-1.0607-4.2422 0-1.0607 1.0607-1.4147 2.8278 0 4.2422 0.25722 0.25699 0.27959 0.55537 0.18164 0.80859-0.097961 0.25322-0.25525 0.43359-0.69727 0.43359-2-9e-7 -3 1.5-3 3-6.5208e-8 1.5 1 3 3 3 0.36312-1e-6 0.59137 0.19504 0.70117 0.44336 0.1098 0.24832 0.12746 0.48605-0.18555 0.79883-1.4147 1.4144-1.0607 3.1815 0 4.2422 1.0607 1.0607 2.8278 1.4147 4.2422 0 0.25699-0.25722 0.55537-0.27959 0.80859-0.18164 0.25323 0.097948 0.43359 0.25525 0.43359 0.69727-1.3e-6 2 1.5 3 3 3 1.5 0 3-1 3-3-1e-6 -0.36312 0.19504-0.59137 0.44336-0.70117 0.24832-0.10979 0.48605-0.12746 0.79883 0.18555 1.4144 1.4147 3.1815 1.0607 4.2422 0 1.0607-1.0607 1.4147-2.8278 0-4.2422-0.25722-0.25699-0.27959-0.55537-0.18164-0.80859 0.097961-0.25322 0.25525-0.43359 0.69727-0.43359 2 1e-6 3-1.5 3-3s-1-3-3-3c-0.36312 1.1e-6 -0.59137-0.19504-0.70117-0.44336-0.1098-0.24832-0.12746-0.48605 0.18555-0.79883 1.4147-1.4144 1.0607-3.1815 0-4.2422-1.0607-1.0607-2.8278-1.4147-4.2422 0-0.25699 0.25722-0.55537 0.27959-0.80859 0.18164-0.25323-0.097948-0.43359-0.25525-0.43359-0.69727 0-2-1.5-3-3-3zm0 2c0.5 0 1 0.5 1 1 0 1.2036 0.75874 2.1934 1.7129 2.5625 0.95415 0.36906 2.1298 0.18077 2.9434-0.63281 0.35386-0.35393 1.0605-0.35355 1.4141 0 0.35355 0.35355 0.35393 1.0602 0 1.4141-0.85142 0.85135-1.0133 2.0878-0.59961 3.0234 0.41372 0.93565 1.3792 1.6328 2.5293 1.6328 0.5 0 1 0.5 1 1-2e-6 0.5-0.5 1-1 1-1.2036 1e-6 -2.1934 0.75874-2.5625 1.7129-0.36906 0.95415-0.18077 2.1298 0.63281 2.9434 0.35393 0.35386 0.35355 1.0605 0 1.4141-0.35355 0.35355-1.0602 0.35393-1.4141 0-0.85135-0.85142-2.0878-1.0133-3.0234-0.59961-0.93565 0.41372-1.6328 1.3792-1.6328 2.5293-1e-6 0.5-0.5 1-1 1-0.5-1e-6 -1-0.5-1-1 0-1.2036-0.75874-2.1934-1.7129-2.5625-0.95415-0.36906-2.1298-0.18077-2.9434 0.63281-0.35385 0.35393-1.0605 0.35355-1.4141 0-0.35355-0.35355-0.35393-1.0602 0-1.4141 0.85142-0.85135 1.0133-2.0878 0.59961-3.0234-0.41372-0.93565-1.3792-1.6328-2.5293-1.6328-0.5-1e-6 -1-0.5-1-1 6e-7 -0.5 0.5-1 1-1 1.2036-1e-6 2.1934-0.75874 2.5625-1.7129 0.36906-0.95415 0.18077-2.1299-0.63281-2.9434-0.35393-0.35385-0.35355-1.0605 0-1.4141 0.35355-0.35355 1.0602-0.35393 1.4141 0 0.85135 0.85142 2.0878 1.0133 3.0234 0.59961 0.93565-0.41372 1.6328-1.3792 1.6328-2.5293 0-0.5 0.5-1 1-1zm0 6c-2.2091 0-4 1.7909-4 4 0 2.2091 1.7909 4 4 4 2.2091 0 4-1.7909 4-4 0-2.2091-1.7909-4-4-4zm0 2c1.1046 0 2 0.8954 2 2s-0.8954 2-2 2-2-0.8954-2-2 0.8954-2 2-2z"/>
</svg>
