<svg version="1.1" viewBox="0 0 24 24" xmlns="http://www.w3.org/2000/svg">
 <path d="m3 2c-1.1046 0-2 0.89543-2 2v5c0 1.1046 0.89543 2 2 2h5c1.1046 0 2-0.89543 2-2v-5c0-1.1046-0.89543-2-2-2h-5zm10 1c-0.5523 0-1 0.44772-1 1s0.4477 1 1 1h9c0.5523 0 1-0.44772 1-1s-0.4477-1-1-1h-9zm-10 1h5v5h-5v-5zm10 3c-0.5523 0-1 0.44772-1 1s0.4477 1 1 1h6c0.5523 0 1-0.44772 1-1s-0.4477-1-1-1h-6zm-10 6c-1.1046 0-2 0.8954-2 2v5c0 1.1046 0.89543 2 2 2h5c1.1046 0 2-0.8954 2-2v-5c0-1.1046-0.89543-2-2-2h-5zm10 1c-0.5523 0-1 0.4477-1 1s0.4477 1 1 1h9c0.5523 0 1-0.4477 1-1s-0.4477-1-1-1h-9zm-10 1h5v5h-5v-5zm10 3c-0.5523 0-1 0.4477-1 1s0.4477 1 1 1h6c0.5523 0 1-0.4477 1-1s-0.4477-1-1-1h-6z"/>
</svg>
