<svg version="1.1" viewBox="0 0 24 24" xmlns="http://www.w3.org/2000/svg">
 <path d="m11.68 0.0039062c-6.4683 0.1718-11.676 5.4849-11.676 11.992 0 6.6156 5.3844 12 12 12 6.5073 0 11.82-5.2075 11.992-11.676a1.0001 1.0001 0 0 0-1.748-0.68945c-1.284 1.4514-3.1506 2.3652-5.2441 2.3652-3.8778 0-7-3.1222-7-7 0-2.0936 0.91388-3.9601 2.3652-5.2441a1.0001 1.0001 0 0 0-0.68945-1.748zm-2.3359 2.5371c-0.78055 1.3334-1.3398 2.8031-1.3398 4.4551 0 4.9587 4.0413 9 9 9 1.652 0 3.1217-0.55929 4.4551-1.3398-1.1829 4.2025-4.8667 7.3398-9.4551 7.3398-5.5347 0-10-4.4653-10-10 0-4.5884 3.1373-8.2722 7.3398-9.4551z"/>
</svg>
