<svg version="1.1" viewBox="0 0 24 24" xmlns="http://www.w3.org/2000/svg">
 <path d="m12 22a10 10 0 0 1-10-10 10 10 0 0 1 10-10c5.5 0 10 4 10 9a6 6 0 0 1-6 6h-1.8c-0.3 0-0.5 0.2-0.5 0.5 0 0.1 0.1 0.2 0.1 0.3 0.4 0.5 0.6 1.1 0.6 1.7 0.1 1.4-1 2.5-2.4 2.5m0-18a8 8 0 0 0-8 8 8 8 0 0 0 8 8c0.3 0 0.5-0.2 0.5-0.5 0-0.2-0.1-0.3-0.1-0.4-0.4-0.5-0.6-1-0.6-1.6 0-1.4 1.1-2.5 2.5-2.5h1.7a4 4 0 0 0 4-4c0-3.9-3.6-7-8-7m-5.5 6c0.8 0 1.5 0.7 1.5 1.5s-0.7 1.5-1.5 1.5-1.5-0.7-1.5-1.5 0.7-1.5 1.5-1.5m3-4c0.8 0 1.5 0.7 1.5 1.5s-0.7 1.5-1.5 1.5-1.5-0.7-1.5-1.5 0.7-1.5 1.5-1.5m5 0c0.8 0 1.5 0.7 1.5 1.5s-0.7 1.5-1.5 1.5-1.5-0.7-1.5-1.5 0.7-1.5 1.5-1.5m3 4c0.8 0 1.5 0.7 1.5 1.5s-0.7 1.5-1.5 1.5-1.5-0.7-1.5-1.5 0.7-1.5 1.5-1.5z"/>
</svg>
