<svg version="1.1" viewBox="0 0 24 24" xmlns="http://www.w3.org/2000/svg">
 <path d="m9 2c-2.7614 0-5 2.2386-5 5s2.2386 5 5 5c2.7614 0 5-2.2386 5-5s-2.2386-5-5-5zm6.9492 0.13086c-0.42574 0.021686-0.80666 0.31724-0.91797 0.75195-0.1369 0.53503 0.1856 1.0798 0.7207 1.2168 0.6453 0.16523 1.2165 0.54021 1.625 1.0664 0.4084 0.52621 0.63086 1.1737 0.63086 1.8398 0 0.66613-0.22246 1.3117-0.63086 1.8379-0.4085 0.5262-0.9797 0.90313-1.625 1.0684-0.5351 0.13699-0.8576 0.68177-0.7207 1.2168 0.137 0.53502 0.6818 0.85769 1.2168 0.7207 1.0756-0.27538 2.0282-0.90229 2.709-1.7793 0.6807-0.87701 1.0508-1.9542 1.0508-3.0645 1e-6 -1.1102-0.37008-2.1894-1.0508-3.0664-0.6808-0.87701-1.6334-1.502-2.709-1.7773-0.10031-0.025685-0.20058-0.036254-0.29883-0.03125zm-6.9492 1.8691c1.6569 0 3 1.3432 3 3s-1.3431 3-3 3c-1.6568 0-3-1.3432-3-3s1.3432-3 3-3zm-4 10c-1.3261 0-2.5975 0.52714-3.5352 1.4648-0.93769 0.9376-1.4648 2.2091-1.4648 3.5352v2c0 0.5523 0.44772 1 1 1 0.55228 0 1-0.4477 1-1v-2c0-0.7956 0.3163-1.5585 0.87891-2.1211 0.56261-0.5626 1.3254-0.87891 2.1211-0.87891h8c0.7956 0 1.5585 0.31631 2.1211 0.87891 0.5626 0.5626 0.87891 1.3254 0.87891 2.1211v2c0 0.5523 0.4477 1 1 1s1-0.4477 1-1v-2c0-1.3261-0.52714-2.5976-1.4648-3.5352-0.9376-0.9377-2.2091-1.4648-3.5352-1.4648h-8zm14.951 0.13086c-0.42579 0.020815-0.8078 0.31556-0.91992 0.75-0.1381 0.5347 0.18405 1.0788 0.71875 1.2168 0.6436 0.1662 1.2139 0.54101 1.6211 1.0664 0.4072 0.5252 0.62831 1.1713 0.62891 1.8359v2c0 0.5523 0.4477 1 1 1s1-0.4477 1-1v-2c-8e-4 -1.1079-0.37013-2.1849-1.0488-3.0605-0.6787-0.8755-1.6285-1.5004-2.7012-1.7773-0.10026-0.025893-0.20057-0.036053-0.29883-0.03125z"/>
</svg>
