<svg version="1.1" viewBox="0 0 24 24" xmlns="http://www.w3.org/2000/svg">
 <path d="m22 4c1.0907 0 2 0.9093 2 2v12c0 1.0907-0.9093 2-2 2h-10c-1.0907 0-2-0.9093-2-2h-8c-1.0907 0-2-0.9093-2-2v-8c0-1.0907 0.9093-2 2-2h8c0-1.0907 0.9093-2 2-2zm-12 4h-8v8h8v-2c5.5e-5 -0.55226 0.44774-0.99994 1-1h0.76758c0.28492-3.2e-5 0.55632 0.12146 0.74609 0.33398 0.3788 0.42352 0.91826 0.66482 1.4863 0.66602 1.1164 4e-6 2-0.88359 2-2 4e-6 -1.1158-0.88257-1.999-1.998-2-0.56882 6.94e-4 -1.1091 0.24205-1.4883 0.66602-0.18977 0.21252-0.46118 0.33402-0.74609 0.33398h-0.76758c-0.55226-5.5e-5 -0.99994-0.44774-1-1z"/>
</svg>
