<svg version="1.1" viewBox="0 0 24 24" xmlns="http://www.w3.org/2000/svg">
 <path d="m12 2c-5.511 0-10 4.489-10 10 0 5.511 4.489 10 10 10 5.511 0 10-4.489 10-10 0-5.511-4.489-10-10-10zm0 2c4.4301 0 8 3.5699 8 8 0 4.4301-3.5699 8-8 8-4.4301 0-8-3.5699-8-8 0-4.4301 3.5699-8 8-8zm0 2c-2.1973 0-4 1.8027-4 4a1 1 0 0 0 1 1 1 1 0 0 0 1-1c0-1.1164 0.88359-2 2-2s2 0.88359 2 2c0 0.22487-0.43379 0.83849-1.0859 1.3105-0.65214 0.47206-1.3223 0.77734-1.3223 0.77734a1 1 0 0 0-0.50391 1.3203 1 1 0 0 0 1.3203 0.50391s0.82988-0.36674 1.6777-0.98047c0.84785-0.61372 1.9141-1.4997 1.9141-2.9316 0-2.1973-1.8027-4-4-4zm0 10a1 1 0 0 0-1 1 1 1 0 0 0 1 1 1 1 0 0 0 1-1 1 1 0 0 0-1-1z"/>
</svg>
