<svg version="1.1" viewBox="0 0 24 24" xml:space="preserve" xmlns="http://www.w3.org/2000/svg"><path d="m8 2c-1.645 0-3 1.355-3 3 0 1.2954 0.83961 2.4105 2 2.8262v7.1738 1.1738c-1.1604 0.41569-2 1.5308-2 2.8262 0 1.645 1.355 3 3 3s3-1.355 3-3c0-1.2954-0.83961-2.4105-2-2.8262v-1.1738c0-0.16667 0.11417-0.4501 0.33203-0.66797s0.5013-0.33203 0.66797-0.33203h4c0.83333 0 1.5499-0.38583 2.082-0.91797 0.53214-0.53213 0.91797-1.2487 0.91797-2.082v-0.17383c1.1604-0.41569 2-1.5308 2-2.8262 0-1.645-1.355-3-3-3s-3 1.355-3 3c0 1.2954 0.83961 2.4105 2 2.8262v0.17383c0 0.16667-0.11417 0.4501-0.33203 0.66797s-0.5013 0.33203-0.66797 0.33203h-4c-0.35642 0-0.6916 0.070939-1 0.19336v-4.3672c1.1604-0.41569 2-1.5308 2-2.8262 0-1.645-1.355-3-3-3zm0 2c0.56413 0 1 0.43587 1 1s-0.43587 1-1 1-1-0.43587-1-1 0.43587-1 1-1zm8 3c0.56413 0 1 0.43587 1 1s-0.43587 1-1 1-1-0.43587-1-1 0.43587-1 1-1zm-8 11c0.56413 0 1 0.43587 1 1s-0.43587 1-1 1-1-0.43587-1-1 0.43587-1 1-1z"/></svg>
