<svg version="1.1" viewBox="0 0 24 24" xmlns="http://www.w3.org/2000/svg">
 <path d="m4 0c-0.55226 5.5e-5 -0.99994 0.44774-1 1v22c5.53e-5 0.55226 0.44774 0.99994 1 1h9c0.55228 0 1-0.44772 1-1s-0.44772-1-1-1h-8v-20h8c0.55228 0 1-0.44772 1-1s-0.44772-1-1-1zm17.707 11.293c0.39037 0.39053 0.39037 1.0235 0 1.4141l-4 4c-0.39051 0.39042-1.0236 0.39042-1.4141 0-0.39042-0.39051-0.39042-1.0236 0-1.4141l2.293-2.293h-8.5859c-0.55228 0-1-0.44772-1-1s0.44772-1 1-1h8.5859l-2.293-2.293c-0.39042-0.39051-0.39042-1.0236 0-1.4141 0.39051-0.39042 1.0236-0.39042 1.4141 0z"/>
</svg>
