<svg version="1.1" viewBox="0 0 24 24" xmlns="http://www.w3.org/2000/svg">
 <path d="m12 0c-0.5523 0-1 0.44772-1 1v2c0 0.55228 0.4477 1 1 1s1-0.44772 1-1v-2c0-0.55228-0.4477-1-1-1zm-7.7793 3.2207c-0.25592 0-0.51177 0.097709-0.70703 0.29297-0.39052 0.39053-0.39052 1.0235 0 1.4141l1.4199 1.4199c0.39053 0.39052 1.0235 0.39052 1.4141 0 0.39052-0.39053 0.39052-1.0235 0-1.4141l-1.4199-1.4199c-0.19526-0.19526-0.45111-0.29297-0.70703-0.29297zm15.559 0c-0.25592 0-0.51178 0.097709-0.70703 0.29297l-1.4199 1.4199c-0.3905 0.39053-0.3905 1.0235 0 1.4141 0.3905 0.39052 1.0236 0.39052 1.4141 0l1.4199-1.4199c0.3905-0.39053 0.3905-1.0235 0-1.4141-0.19525-0.19526-0.45111-0.29297-0.70703-0.29297zm-7.7793 2.7793c-3.3137 0-6 2.6863-6 6 0 3.3137 2.6863 6 6 6 3.3137 0 6-2.6863 6-6 0-3.3137-2.6863-6-6-6zm0 2c2.2091 0 4 1.7909 4 4 0 2.2091-1.7909 4-4 4-2.2091 0-4-1.7909-4-4 0-2.2091 1.7909-4 4-4zm-11 3c-0.55228 0-1 0.4477-1 1s0.44772 1 1 1h2c0.55228 0 1-0.4477 1-1s-0.44772-1-1-1h-2zm20 0c-0.5523 0-1 0.4477-1 1s0.4477 1 1 1h2c0.5523 0 1-0.4477 1-1s-0.4477-1-1-1h-2zm-15.359 6.3594c-0.25592 0-0.51177 0.097719-0.70703 0.29297l-1.4199 1.4199c-0.39052 0.3905-0.39052 1.0236 0 1.4141 0.39053 0.3905 1.0235 0.3905 1.4141 0l1.4199-1.4199c0.39052-0.3905 0.39052-1.0236 0-1.4141-0.19526-0.19525-0.45111-0.29297-0.70703-0.29297zm12.719 0c-0.25592 0-0.51178 0.097719-0.70703 0.29297-0.3905 0.3905-0.3905 1.0236 0 1.4141l1.4199 1.4199c0.3905 0.3905 1.0236 0.3905 1.4141 0 0.3905-0.3905 0.3905-1.0236 0-1.4141l-1.4199-1.4199c-0.19525-0.19525-0.45111-0.29297-0.70703-0.29297zm-6.3594 2.6406c-0.5523 0-1 0.4477-1 1v2c0 0.5523 0.4477 1 1 1s1-0.4477 1-1v-2c0-0.5523-0.4477-1-1-1z"/>
</svg>
