<svg version="1.1" viewBox="0 0 24 24" xmlns="http://www.w3.org/2000/svg">
 <path d="m12 2c-2.7614 0-5 2.2386-5 5s2.2386 5 5 5c2.7614 0 5-2.2386 5-5s-2.2386-5-5-5zm0 2c1.6569 0 3 1.3432 3 3s-1.3431 3-3 3c-1.6568 0-3-1.3432-3-3s1.3432-3 3-3zm-4 10c-1.3261 0-2.5975 0.52714-3.5352 1.4648-0.93769 0.9376-1.4648 2.2091-1.4648 3.5352v2c0 0.5523 0.44772 1 1 1 0.55228 0 1-0.4477 1-1v-2c0-0.7956 0.3163-1.5585 0.87891-2.1211 0.56261-0.5626 1.3254-0.87891 2.1211-0.87891h8c0.7956 0 1.5585 0.31631 2.1211 0.87891 0.5626 0.5626 0.87891 1.3255 0.87891 2.1211v2c0 0.5523 0.4477 1 1 1s1-0.4477 1-1v-2c0-1.3261-0.52714-2.5976-1.4648-3.5352-0.9376-0.9377-2.2091-1.4648-3.5352-1.4648h-8z"/>
</svg>
