<svg version="1.1" viewBox="0 0 56.342 20" xml:space="preserve" xmlns="http://www.w3.org/2000/svg"><path id="playground-vue" d="m21.072 0c-1.0907 0-2 0.9093-2 2v6c6e-5 0.55226 0.44774 0.99994 1 1h0.76758c0.28492 3e-5 0.55632-0.12147 0.74609-0.33398 0.37921-0.42397 0.91946-0.66533 1.4883-0.66602 1.1155 1e-3 1.9981 0.88425 1.998 2 1e-5 1.1164-0.88359 2-2 2-0.56807-0.0012-1.1075-0.2425-1.4863-0.66602-0.18977-0.21252-0.46117-0.33401-0.74609-0.33398h-0.76758c-0.55226 5e-5 -0.99994 0.44774-1 1v6c0 1.0907 0.9093 2 2 2h25.846c1.0907 0 2-0.9093 2-2v-16c0-1.0907-0.9093-2-2-2zm8.0078 6.3535h1.4414l1.4297 4.8105 1.4316-4.8105h1.4512l-2.2012 6.3223h-1.3633zm13.15 1.5371c0.33294 0 0.6271 0.05405 0.88476 0.16406s0.47278 0.26805 0.64648 0.4707c0.1766 0.20266 0.31064 0.4448 0.40039 0.72852 0.08975 0.28083 0.13476 0.59298 0.13476 0.9375v0.52148h-3c0.01263 0.10345 0.03386 0.20145 0.06445 0.29492 0.05501 0.15923 0.13204 0.29826 0.23047 0.41406 0.10133 0.1158 0.22337 0.20389 0.36523 0.26758 0.14476 0.06369 0.30784 0.0957 0.49023 0.0957 0.22582 0 0.43494-0.04205 0.62891-0.12891 0.19687-0.08975 0.36595-0.2248 0.50781-0.4043l0.60938 0.66016c-0.09843 0.14186-0.23349 0.27793-0.4043 0.4082-0.16792 0.13028-0.37002 0.23635-0.60742 0.32031-0.2374 0.08106-0.50851 0.12305-0.8125 0.12305-0.36478 0-0.69291-0.05802-0.98242-0.17383-0.28951-0.1187-0.53562-0.28374-0.73828-0.49219-0.19976-0.20845-0.35186-0.44957-0.45898-0.72461-0.10712-0.27793-0.16211-0.57209-0.16211-0.88477v-0.17383c0-0.3561 0.05101-0.68322 0.15234-0.97852 0.10133-0.2953 0.24541-0.55044 0.43359-0.76758 0.19108-0.21713 0.42317-0.3842 0.69531-0.5 0.27214-0.1187 0.58025-0.17773 0.92188-0.17773zm-7.041 0.08594h1.252v3.0449c0 0.13897 0.01504 0.25602 0.04687 0.35156 0.03474 0.09554 0.08373 0.17358 0.14453 0.23438 0.0608 0.0608 0.13183 0.10481 0.21289 0.13086 0.08396 0.02605 0.17602 0.03906 0.27734 0.03906 0.25766 0 0.45977-0.05203 0.60742-0.15625 0.11902-0.0824 0.21051-0.18892 0.27344-0.31836v-3.3262h1.252v4.6992h-1.1777l-0.0332-0.48828c-0.13928 0.17412-0.30972 0.31209-0.51367 0.41406-0.22003 0.10712-0.47915 0.16211-0.77734 0.16211-0.22871 0-0.44079-0.03201-0.63477-0.0957-0.19108-0.06659-0.35518-0.16963-0.49414-0.30859-0.13607-0.14186-0.2441-0.32294-0.32227-0.54297-0.07527-0.22291-0.11328-0.49006-0.11328-0.80273zm7.0273 0.89062c-0.16502 0-0.30708 0.037-0.42578 0.10938-0.1187 0.07238-0.21574 0.17246-0.29102 0.30274-0.07238 0.13028-0.12643 0.28434-0.16406 0.46094-9e-3 0.04521-0.01675 0.0911-0.02344 0.13867h1.7559v-0.0957c0-0.17371-0.03201-0.32877-0.0957-0.46484-0.0608-0.13896-0.15286-0.24902-0.27734-0.33008-0.12449-0.08106-0.28454-0.12109-0.47852-0.12109z"/><path id="playground-lit101" d="m2 2c-1.0907 0-2 0.9093-2 2v12c0 1.0907 0.9093 2 2 2h17.072c1.0907 0 2-0.9093 2-2v-2.6191c0.61017 0.36186 1.2255 0.61914 2 0.61914 2.1239 6.2e-4 4-1.8027 4-4 1e-5 -2.1973-1.819-4-4-4-0.81628 0-1.3898 0.25729-2 0.61914v-2.6191c0-1.0907-0.9093-2-2-2zm0 2h17.072v4c6e-5 0.55226 0.44774 0.99994 1 1h0.76758c0.07891 1e-5 0.15703-0.0094 0.23242-0.02734 0.19682-0.04696 0.37646-0.15298 0.51367-0.30664 0.37921-0.42397 0.91946-0.66533 1.4883-0.66602 1.1155 1e-3 1.9981 0.88425 1.998 2 1e-5 1.1164-0.88359 2-2 2-0.56807-0.0012-1.1075-0.24249-1.4863-0.66602-0.13721-0.15366-0.31685-0.25968-0.51367-0.30664-0.07539-0.01794-0.15351-0.02735-0.23242-0.02734h-0.76758c-0.55226 5e-5 -0.99994 0.44774-1 1v4h-17.072zm2.5859 2.459v6.2168h0.9668v-2.5176c0-0.26263 0.07827-0.47084 0.23242-0.625 0.15986-0.15416 0.35981-0.23047 0.59961-0.23047 0.50814 0 0.76172 0.28453 0.76172 0.85547v2.5176h0.96875v-2.7832c0-0.47959-0.13806-0.84854-0.41211-1.1055-0.26834-0.26263-0.61266-0.39258-1.0352-0.39258-0.19412 0-0.39197 0.04327-0.5918 0.12891-0.19983 0.07993-0.36478 0.18719-0.49609 0.32422h-0.02734v-2.3887zm5.8574 1.9355c-1.0562 0-1.584 0.75247-1.584 2.2598 0 1.376 0.51948 2.0645 1.5586 2.0645 0.41679 0 0.7569-0.15052 1.0195-0.45312h0.01758v0.39258c0 0.27976-0.08037 0.49413-0.24023 0.64258-0.15415 0.15416-0.36642 0.23242-0.63477 0.23242-0.38253 0-0.7309-0.11537-1.0449-0.34375l-0.50391 0.71094c0.38253 0.34256 0.87316 0.51367 1.4727 0.51367 1.2618 1e-6 1.8926-0.63695 1.8926-1.9102v-4.0664h-0.95117v0.38477h-0.01758c-0.22838-0.28547-0.55617-0.42774-0.98438-0.42774zm4.4961 0c-0.45105 0-0.82826 0.11748-1.1309 0.35156-0.3026 0.23409-0.45312 0.55782-0.45312 0.97461 0 0.18841 0.035 0.35531 0.10352 0.49805 0.06851 0.14274 0.14693 0.25405 0.23828 0.33398 0.09135 0.07423 0.21709 0.14017 0.37695 0.19727 0.16557 0.05709 0.30979 0.0963 0.42969 0.11914 0.1199 0.01713 0.27253 0.03771 0.46094 0.06055 0.26264 0.02855 0.45432 0.08007 0.57422 0.1543 0.1199 0.07422 0.17969 0.18148 0.17969 0.32422 0 0.14845-0.07015 0.26802-0.21289 0.35938-0.13703 0.08564-0.31219 0.12891-0.52344 0.12891-0.5424 0-0.99592-0.169-1.3613-0.50586l-0.52148 0.69531c0.4853 0.42821 1.0976 0.64063 1.8398 0.64062 0.49101 0 0.90323-0.11958 1.2344-0.35938 0.33115-0.2455 0.49609-0.57329 0.49609-0.98438 0-0.71368-0.46179-1.1218-1.3867-1.2246-0.3654-0.03996-0.62514-0.09149-0.7793-0.1543-0.15415-0.06851-0.23242-0.17157-0.23242-0.30859 0-0.13132 0.05979-0.23858 0.17969-0.32422 0.1199-0.08564 0.2889-0.12891 0.50586-0.12891 0.39395 0 0.77732 0.12168 1.1484 0.36719l0.46094-0.73633c-0.4225-0.31973-0.96466-0.47852-1.627-0.47852zm-4.3457 0.9082c0.02123-0.0012 0.04233 0 0.06445 0 0.17699 0 0.32136 0.03921 0.43555 0.11914 0.11419 0.07993 0.19456 0.19335 0.24024 0.3418 0.04567 0.14274 0.07452 0.27253 0.08594 0.38672 0.01713 0.11419 0.02539 0.25029 0.02539 0.41016 0 0.83358-0.2659 1.25-0.79688 1.25-0.17699 0-0.32136-0.03305-0.43555-0.10156-0.11419-0.06851-0.19666-0.16946-0.24805-0.30078-0.04568-0.13132-0.07858-0.25916-0.0957-0.38477-0.01713-0.1256-0.02539-0.28019-0.02539-0.46289 0-0.17128 0.0083-0.3176 0.02539-0.4375 0.01713-0.12561 0.05003-0.25555 0.0957-0.39258 0.05139-0.13703 0.13386-0.24218 0.24805-0.31641 0.10491-0.06494 0.23224-0.10321 0.38086-0.11133z"/><path id="playground-react" d="m21.072 0c-1.0907 0-2 0.9093-2 2v6c6e-5 0.55226 0.44774 0.99994 1 1h0.76758c0.28492 3e-5 0.55632-0.12147 0.74609-0.33398 0.37921-0.42397 0.91946-0.66533 1.4883-0.66602 1.1155 1e-3 1.9981 0.88425 1.998 2 9e-6 1.1164-0.88359 2-2 2-0.56807-0.0012-1.1075-0.2425-1.4863-0.66602-0.18977-0.21252-0.46117-0.33401-0.74609-0.33398h-0.76758c-0.55226 5e-5 -0.99994 0.44774-1 1v6c0 1.0907 0.9093 2 2 2h33.27c1.0907 0 2-0.9093 2-2v-16c0-1.0907-0.9093-2-2-2zm8.0078 6.3535h2.3574c0.48348 0 0.90063 0.07204 1.248 0.2168 0.35031 0.14476 0.61846 0.35886 0.80664 0.64258 0.18818 0.28372 0.2832 0.63287 0.2832 1.0469 0 0.33872-0.05802 0.62986-0.17383 0.87305-0.11291 0.24029-0.27397 0.44139-0.48242 0.60352-0.14217 0.11013-0.30172 0.20549-0.47852 0.28516l1.3691 2.5938v0.06055h-1.3945l-1.1973-2.3398h-1.0352v2.3398h-1.3027zm20.059 0.46484h1.25v1.1582h0.80859v0.88672h-0.80859v2.3965c0 0.13607 0.018 0.24012 0.05274 0.3125 0.03763 0.07238 0.09363 0.12339 0.16602 0.15234 0.07238 0.02605 0.16342 0.03906 0.27344 0.03906 0.07817 0 0.14623-2e-3 0.20703-0.0078 0.06369-0.0087 0.11868-0.01866 0.16211-0.02734l0.0039 0.92188c-0.10712 0.03474-0.22317 0.06176-0.34766 0.08203-0.12449 0.02027-0.26156 0.03125-0.41211 0.03125-0.27504 0-0.51515-0.04502-0.7207-0.13477-0.20266-0.09267-0.35873-0.24071-0.46875-0.44337-0.11002-0.20266-0.16602-0.46879-0.16602-0.79883v-2.5234h-0.67773v-0.88672h0.67773zm-18.756 0.55469v1.9453h1.0645c0.22871 0 0.41782-0.04003 0.56836-0.12109 0.15054-0.08106 0.26457-0.19314 0.33984-0.33789 0.07817-0.14476 0.11719-0.31283 0.11719-0.50391 0-0.20266-0.03801-0.37774-0.11328-0.52539-0.07527-0.14765-0.19031-0.26168-0.34375-0.33984-0.15344-0.07817-0.34652-0.11719-0.57812-0.11719zm6.3398 0.51758c0.33294 0 0.62905 0.05405 0.88672 0.16406 0.25766 0.11001 0.47278 0.26804 0.64648 0.4707 0.1766 0.20266 0.31064 0.4448 0.40039 0.72852 0.08975 0.28083 0.13476 0.59298 0.13476 0.9375v0.52148h-3c0.01263 0.10345 0.03386 0.20145 0.06445 0.29492 0.05501 0.15923 0.13008 0.29826 0.22852 0.41406 0.10133 0.1158 0.22337 0.20389 0.36523 0.26758 0.14476 0.06369 0.30784 0.0957 0.49024 0.0957 0.22582 0 0.43689-0.04205 0.63086-0.12891 0.19687-0.08975 0.36595-0.2248 0.50781-0.4043l0.60742 0.66016c-0.09843 0.14186-0.23153 0.27793-0.40234 0.4082-0.16792 0.13028-0.37198 0.23635-0.60938 0.32031-0.2374 0.08106-0.50851 0.12305-0.8125 0.12305-0.36478 0-0.69096-0.05802-0.98047-0.17383-0.28951-0.1187-0.53562-0.28374-0.73828-0.49218-0.19976-0.20845-0.35382-0.44957-0.46094-0.72461-0.10712-0.27793-0.16016-0.5721-0.16016-0.88477v-0.17383c0-0.3561 0.05101-0.68322 0.15234-0.97852 0.10133-0.2953 0.24541-0.55045 0.43359-0.76758 0.19108-0.21713 0.42317-0.3842 0.69531-0.5 0.27214-0.1187 0.5783-0.17773 0.91992-0.17773zm4.6855 0c0.36478 0 0.68894 0.06005 0.97266 0.18164 0.28372 0.12159 0.5078 0.30369 0.66992 0.54688 0.16502 0.24319 0.24805 0.54732 0.24805 0.91211v2.0117c0 0.25766 0.01503 0.46779 0.04687 0.63281 0.03185 0.16213 0.07788 0.30419 0.13867 0.42578v0.07422h-1.2637c-0.05687-0.11916-0.09932-0.26651-0.13086-0.44141-0.04469 0.05188-0.09357 0.10126-0.14648 0.15039-0.1216 0.11001-0.26864 0.20106-0.43945 0.27344-0.17081 0.06948-0.37292 0.10547-0.60742 0.10547-0.29819 0-0.56931-0.06099-0.8125-0.17969-0.24029-0.1216-0.43041-0.28671-0.57227-0.49805-0.13896-0.21424-0.20898-0.45833-0.20898-0.73047 0-0.24608 0.04603-0.46517 0.13867-0.65625 0.09264-0.19108 0.22871-0.35019 0.4082-0.48047 0.18239-0.13318 0.4095-0.23419 0.68164-0.30078 0.27214-0.06948 0.58827-0.10352 0.94726-0.10352h0.56055v-0.29102c0-0.15055-0.02501-0.2796-0.07422-0.38672-0.04921-0.11001-0.12624-0.19506-0.23047-0.25586-0.10133-0.0608-0.2324-0.0918-0.39453-0.0918-0.13896 0-0.26 0.025-0.36133 0.07422-0.10133 0.04632-0.17937 0.11338-0.23438 0.20312-0.05501 0.08685-0.08203 0.1899-0.08203 0.30859h-1.25c0-0.19976 0.04603-0.38886 0.13867-0.56836 0.09264-0.1795 0.2277-0.33659 0.4043-0.47266 0.1766-0.13896 0.38572-0.248 0.62891-0.32617 0.24608-0.07817 0.52023-0.11719 0.82422-0.11719zm4.8125 0c0.38505 0 0.72221 0.07305 1.0117 0.2207 0.29241 0.14765 0.52053 0.35973 0.68555 0.63477 0.16792 0.27214 0.25492 0.59528 0.25781 0.96875h-1.1777c-0.0029-0.15634-0.03589-0.2984-0.09961-0.42578-0.0608-0.12738-0.15083-0.22942-0.26953-0.30469-0.1158-0.07817-0.25888-0.11719-0.42969-0.11719-0.18239 0-0.33146 0.03902-0.44727 0.11719-0.1158 0.07527-0.20584 0.17932-0.26953 0.3125-0.06369 0.13028-0.10871 0.27935-0.13477 0.44727-0.02316 0.16502-0.03516 0.33909-0.03516 0.52148v0.12695c0 0.18239 0.012 0.35748 0.03516 0.52539s0.06716 0.31699 0.13086 0.44726c0.06659 0.13028 0.15763 0.23332 0.27344 0.30859 0.1158 0.07527 0.26588 0.11133 0.45117 0.11133 0.15344 0 0.2895-0.02804 0.4082-0.08594 0.1187-0.0608 0.21076-0.14484 0.27734-0.25195 0.06948-0.11002 0.10648-0.23907 0.10938-0.38672h1.1777c-0.0029 0.33004-0.09189 0.6232-0.26562 0.88086-0.1737 0.25477-0.40682 0.45586-0.69922 0.60352-0.2924 0.14476-0.62054 0.21875-0.98242 0.21875-0.36478 0-0.68294-0.062-0.95508-0.18359-0.26924-0.12159-0.49238-0.28966-0.67188-0.5039-0.1795-0.21713-0.31455-0.46924-0.4043-0.75586-0.08975-0.28951-0.13476-0.59769-0.13476-0.92774v-0.12695c0-0.33294 0.04502-0.64307 0.13476-0.92969 0.08975-0.28951 0.2248-0.54162 0.4043-0.75586 0.1795-0.21713 0.40263-0.38622 0.67188-0.50781 0.26924-0.1216 0.58538-0.18164 0.94727-0.18164zm-9.5098 0.97656c-0.16502-1e-6 -0.30708 0.037-0.42578 0.10938-0.1187 0.07238-0.21574 0.17245-0.29102 0.30273-0.07238 0.13028-0.12838 0.28434-0.16602 0.46094-9e-3 0.04521-0.0148 0.09111-0.02148 0.13867h1.7539v-0.0957c0-0.17371-0.03006-0.32877-0.09375-0.46484-0.0608-0.13896-0.15481-0.24902-0.2793-0.33008-0.12449-0.08106-0.28259-0.12109-0.47656-0.12109zm4.8027 1.6543c-0.16502 0-0.30809 0.01901-0.42969 0.05664-0.12159 0.03763-0.22261 0.09262-0.30078 0.16211-0.07817 0.06659-0.13619 0.14463-0.17383 0.23438-0.03474 0.08975-0.05078 0.1878-0.05078 0.29492 0 0.10712 0.02305 0.20416 0.07227 0.29102 0.04921 0.08396 0.12024 0.15 0.21289 0.19922 0.09264 0.04632 0.20168 0.07031 0.32617 0.07031 0.18818 0 0.35127-0.03801 0.49024-0.11328 0.13896-0.07527 0.24699-0.16928 0.32226-0.2793 0.02244-0.03158 0.0404-0.06117 0.05664-0.0918v-0.82421z"/><path id="playground-lit" d="m21.072 0c-1.0907 0-2 0.9093-2 2v6c6e-5 0.55226 0.44774 0.99994 1 1h0.76758c0.28492 3e-5 0.55632-0.12147 0.74609-0.33398 0.37921-0.42397 0.91946-0.66533 1.4883-0.66602 1.1155 1e-3 1.9981 0.88425 1.998 2 1e-5 1.1164-0.88359 2-2 2-0.56807-0.0012-1.1075-0.2425-1.4863-0.66602-0.18977-0.21252-0.46117-0.33401-0.74609-0.33398h-0.76758c-0.55226 5e-5 -0.99994 0.44774-1 1v6c0 1.0907 0.9093 2 2 2h21.393c1.0907 0 2-0.9093 2-2v-16c0-1.0907-0.9093-2-2-2zm13.434 6.123c0.21134 0 0.38043 0.05904 0.50781 0.17773 0.13028 0.1187 0.19531 0.26878 0.19531 0.45117 0 0.18239-0.06503 0.33442-0.19531 0.45312-0.12738 0.1187-0.29647 0.17774-0.50781 0.17773-0.21424 0-0.38629-0.05904-0.51367-0.17773-0.12738-0.1187-0.19141-0.27073-0.19141-0.45312 0-0.18239 0.06402-0.33247 0.19141-0.45117 0.12738-0.1187 0.29943-0.17773 0.51367-0.17773zm-5.4258 0.23047h1.3027v5.3066h2.7637v1.0156h-4.0664zm7.332 0.46484h1.25v1.1582h0.80859v0.88672h-0.80859v2.3965c0 0.13607 0.01799 0.24012 0.05273 0.3125 0.03763 0.07238 0.09168 0.12339 0.16406 0.15234 0.07238 0.02605 0.16342 0.03906 0.27344 0.03906 0.07817 0 0.14819-2e-3 0.20898-0.0078 0.06369-0.0087 0.11673-0.01866 0.16016-0.02734l0.0039 0.92188c-0.10712 0.03474-0.22121 0.06176-0.3457 0.08203-0.12449 0.02027-0.26352 0.03125-0.41406 0.03125-0.27504 0-0.51515-0.04502-0.7207-0.13477-0.20266-0.09266-0.35874-0.2407-0.46875-0.44336s-0.16406-0.46879-0.16406-0.79883v-2.5234h-0.67774v-0.88672h0.67774zm-2.5332 1.1582h1.2559v4.6992h-1.2559z"/></svg>
